<?xml version="1.0" encoding="UTF-8" standalone="no"?>
<svg width="116px" height="25px" xmlns="http://www.w3.org/2000/svg">
  <g id="name" transform="translate(-45.34908,-10.299936)">
    <path
       style="fill:#502070;stroke-width:0.31999999"
       d="m 117.00235,34.602379 c -0.14908,-0.0909 -0.33005,-0.279367 -0.40216,-0.418813 -0.24589,-0.475495 -0.16859,-0.879834 0.47004,-2.45872 0.33063,-0.817424 0.76586,-1.943427 0.96717,-2.502227 0.82066,-2.277924 1.48384,-4.22034 1.4613,-4.280023 -0.0132,-0.03487 -0.57641,0.242381 -1.25162,0.616115 -3.50647,1.940839 -5.14719,2.449031 -6.22394,1.927786 -0.44125,-0.213603 -0.82582,-0.7256 -0.9844,-1.310576 -0.12187,-0.4496 -0.0467,-1.931392 0.12199,-2.405594 l 0.13246,-0.372291 -0.39656,0.382663 c -1.54247,1.488438 -4.27741,3.241856 -5.57344,3.573238 -0.60872,0.155642 -1.65969,0.174246 -2.07064,0.03666 -0.6814,-0.228141 -1.12698,-0.762086 -1.36802,-1.639309 -0.18962,-0.690121 -0.21804,-0.959657 -0.27668,-2.624665 -0.076,-2.157236 -0.2004,-2.584384 -0.75173,-2.580474 -0.71494,0.0051 -1.374838,0.570627 -3.653097,3.130806 -2.011277,2.26016 -3.033895,3.22537 -3.868103,3.650951 -0.321094,0.163808 -0.366726,0.167421 -0.615676,0.0487 -0.447399,-0.213348 -0.589632,-0.627904 -0.572164,-1.667652 0.0082,-0.48895 0.06737,-1.127126 0.131453,-1.418166 0.06408,-0.291043 0.105363,-0.529168 0.09173,-0.529168 -0.01363,0 -0.264352,0.213827 -0.557152,0.475174 -1.569062,1.40049 -3.843388,2.807376 -5.039254,3.117258 -0.661405,0.171386 -1.660326,0.17048 -2.166426,-0.0019 -0.711475,-0.242422 -1.232912,-1.045725 -1.451292,-2.235798 -0.02992,-0.162986 -0.08948,-1.039284 -0.132388,-1.947335 -0.04291,-0.908048 -0.102736,-1.791654 -0.132953,-1.963565 -0.115203,-0.655395 -0.574589,-0.824563 -1.293751,-0.476422 -0.47055,0.227789 -1.507449,1.252925 -2.880928,2.848243 -1.683344,1.955229 -3.147398,3.354909 -3.9232,3.750695 -0.321094,0.163808 -0.366723,0.16742 -0.615676,0.0487 -0.453207,-0.216118 -0.593264,-0.626896 -0.583037,-1.709984 0.0048,-0.512233 0.0663,-1.168998 0.136595,-1.459475 l 0.127802,-0.528141 -1.033405,0.9989 c -2.797162,2.703772 -5.557101,4.417715 -7.113786,4.417715 -0.450218,0 -1.213008,-0.201107 -1.576704,-0.415693 -0.418679,-0.247024 -0.903853,-0.930243 -1.16176,-1.635971 -0.249966,-0.692371 -0.319871,-0.859363 -0.34585,-2.530845 -0.02567,-1.651891 0.05844,-1.94376 0.262509,-2.844195 0.345527,-1.524512 0.739587,-2.403184 0.957888,-2.775629 0.401533,-0.685056 1.16104,-1.212186 1.86008,-1.290976 0.695337,-0.07838 0.707949,0.287744 0.08555,2.484134 -0.665443,2.348314 -0.823943,3.283613 -0.780634,4.606509 0.03934,1.201763 0.137767,1.596007 0.472989,1.894621 0.527834,0.470198 2.285719,-0.127952 4.223175,-1.437005 1.090493,-0.736797 3.085971,-2.347075 4.047686,-3.266336 0.75608,-0.722701 0.773412,-0.748294 1.089226,-1.608665 0.844349,-2.300244 1.39799,-3.03328 2.290947,-3.03328 0.24809,0 0.319805,0.04434 0.436384,0.269769 0.230535,0.445808 0.118666,1.071971 -0.417488,2.336835 -0.533331,1.258202 -1.195667,3.181687 -1.284355,3.729882 -0.05851,0.361658 -0.05642,0.365866 0.131664,0.265206 0.10511,-0.05626 0.726,-0.659772 1.379757,-1.341152 2.722374,-2.837417 3.527609,-3.590163 4.203933,-3.92991 0.92679,-0.465568 1.923827,-0.58311 2.497667,-0.294451 0.340739,0.171401 0.638947,0.530109 0.823238,0.990259 0.177805,0.443952 0.188979,0.598682 0.193047,2.673222 0.0043,2.16896 0.0075,2.208266 0.213683,2.620263 0.295424,0.590205 0.567843,0.76567 1.166137,0.75111 0.830973,-0.02022 1.998816,-0.563622 3.403562,-1.583693 0.920291,-0.668278 2.086147,-1.657411 2.722106,-2.309484 0.597228,-0.612365 0.67622,-0.736352 1.012329,-1.589005 0.416333,-1.056173 1.028109,-2.118266 1.360423,-2.361811 0.304809,-0.223392 1.011292,-0.291844 1.160204,-0.112413 0.166976,0.201193 0.213143,0.763337 0.09969,1.213888 -0.05579,0.221574 -0.306547,0.880077 -0.557235,1.463341 -0.573619,1.334624 -1.222998,3.258425 -1.224432,3.627408 l -9.6e-4,0.280931 0.255123,-0.181664 c 0.140317,-0.09991 1.03825,-1.007383 1.995408,-2.016595 2.003344,-2.112301 2.733981,-2.774861 3.513421,-3.186061 1.16019,-0.612064 2.3973,-0.568909 2.95408,0.103046 0.48337,0.583376 0.5484,0.990595 0.55081,3.449411 0.002,2.03136 0.0152,2.22706 0.17149,2.534535 0.0931,0.183261 0.2765,0.411565 0.40749,0.507341 0.3633,0.265644 1.13783,0.217264 1.95272,-0.121975 1.28738,-0.535939 3.58189,-2.23496 5.28203,-3.91119 0.93721,-0.924042 0.98601,-0.990439 1.45792,-1.983575 0.73452,-1.545814 1.27371,-2.037795 2.15209,-1.96367 0.46231,0.03901 0.6824,0.34769 0.67377,0.944944 -0.008,0.526214 -0.078,0.673418 -0.68777,1.43863 -0.52433,0.657965 -1.54068,2.68344 -1.77216,3.531709 -0.17056,0.625002 -0.19068,1.890106 -0.0347,2.181555 0.13536,0.252922 0.59665,0.246208 1.66263,-0.02419 1.94977,-0.494598 4.55183,-2.000934 5.36388,-3.105148 0.32509,-0.442055 0.69632,-1.551018 1.02779,-3.07026 0.40362,-1.849968 0.80726,-2.419692 1.71431,-2.419692 0.40982,0 0.49604,0.02966 0.64818,0.223084 0.11537,0.146672 0.17547,0.34706 0.17547,0.58504 0,0.247204 -0.52587,1.914551 -1.65869,5.259082 -2.34971,6.937306 -2.93631,8.719731 -3.29742,10.019459 -0.35374,1.273203 -0.53928,1.703533 -0.81892,1.899405 -0.26013,0.182198 -0.81547,0.166003 -1.14235,-0.03331 z"
       id="inny" />
    <path style="fill:#502070;stroke-width:0.31999999"
       d="m 46.391329,29.851265 c -0.671596,-0.128256 -1.042249,-0.532256 -1.042249,-1.136013 0,-0.523747 0.236707,-1.482861 0.796336,-3.226685 0.765232,-2.384492 0.962483,-3.040393 1.817891,-6.044947 0.942966,-3.312089 1.054272,-3.749577 1.400282,-5.503753 0.423328,-2.14618 0.80582,-2.708916 1.841254,-2.708916 0.442909,0 0.528966,0.02982 0.794342,0.275168 0.249376,0.23056 0.311396,0.361927 0.382576,0.810362 l 0.08496,0.535197 -1.182755,3.528803 c -0.650515,1.940845 -1.265482,3.833603 -1.366589,4.206138 -0.101107,0.372534 -0.503222,1.737766 -0.893587,3.033849 -0.825494,2.740778 -0.956573,3.336301 -0.806736,3.665159 0.09992,0.219292 0.117715,0.223987 0.670502,0.176822 0.312324,-0.02666 1.15841,-0.204688 1.880192,-0.395645 2.891319,-0.764934 5.465658,-1.198195 7.242704,-1.218947 0.828688,-0.0097 1.060589,0.01488 1.237975,0.131098 0.594973,0.389804 0.194029,1.473574 -0.72161,1.95054 -0.312419,0.162743 -0.544973,0.189568 -2.128736,0.245543 -2.096601,0.0741 -2.827702,0.194294 -5.840566,0.960201 -2.887402,0.734013 -3.510893,0.841168 -4.166183,0.716026 z"
       id="L" />
    <path style="fill:#502070;stroke-width:0.31999999"
       d="m 158.41516,29.285323 c -1.68569,-0.709479 -2.97931,-2.068208 -4.35408,-3.232682 -1.08587,-0.95657 -2.13851,-1.954173 -3.27068,-2.856006 -0.9458,-0.328372 -1.99243,-0.03507 -2.97065,-0.205114 -0.73929,-0.677386 -0.13542,-2.206461 0.95151,-2.058746 2.68247,-0.20031 5.18427,-1.454585 7.26996,-3.098924 0.61632,-0.539156 1.45083,-1.353799 1.01854,-2.245802 -0.64453,-1.482934 -2.39375,-2.01607 -3.87203,-2.19343 -1.67201,-0.01981 -3.34583,0.216864 -4.9822,0.542281 -0.1345,0.626061 0.14959,1.507315 0.0388,2.235853 -0.11955,1.964906 -0.96499,3.786742 -1.53174,5.647958 -0.57581,1.899037 -1.43157,3.83042 -1.18699,5.856682 0.63117,0.935328 -0.41834,1.608141 -1.30139,1.507002 -1.09517,0.08497 -1.41151,-1.108682 -1.19333,-1.973949 0.3495,-2.628711 1.50268,-5.056112 2.19001,-7.601011 0.48498,-1.648804 0.77953,-3.361517 0.86547,-5.075031 -0.698,0.167066 -2.11114,0.786528 -2.00941,-0.484441 0.191,-0.989117 1.40662,-1.201994 2.1938,-1.548148 3.01182,-0.937494 6.28049,-1.349078 9.38789,-0.655766 1.48464,0.341427 3.06874,1.198317 3.59331,2.714925 0.45568,1.598691 -0.25619,3.341894 -1.51203,4.375648 -1.34408,1.269312 -2.99216,2.127734 -4.60827,2.990176 0.23871,0.559357 1.26901,1.089689 1.81543,1.623433 1.99729,1.624144 4.08453,3.134471 6.08068,4.758954 0.30156,0.790499 -1.16379,1.196854 -1.83892,1.105834 -0.26166,-0.0099 -0.52552,-0.04278 -0.77369,-0.129696 z"
       id="R" />
    <path style="fill:#502070;stroke-width:0.31999999"
       d="m 138.18608,22.943454 c -0.50135,-0.127939 -1.00764,-0.239181 -1.52794,-0.244531 -2.32301,-0.119028 -4.64998,-0.05991 -6.97414,-0.01866 -0.35077,0.01232 -0.78609,-0.02918 -0.95151,-0.393879 -0.15851,-0.476313 0.23122,-0.988307 0.68326,-1.128144 0.62918,-0.199225 1.29238,-0.284057 1.94932,-0.327417 0.56199,0.005 1.11523,0.137657 1.67949,0.118931 1.48708,0.02598 2.97247,-0.07755 4.45161,-0.220259 0.53457,-0.03139 1.02885,0.226035 1.50772,0.428896 0.3728,0.141926 0.65645,0.526393 0.52527,0.93416 -0.052,0.4439 -0.39159,0.818662 -0.85038,0.842288 -0.16224,0.02714 -0.33003,0.03925 -0.4927,0.0086 z"
       id="dash" />
    <path style="fill:#502070;stroke-width:0.31999999"
       d="m 66.600411,13.251924 c -0.659802,-0.107542 -0.893056,-0.303689 -0.873674,-0.734685 0.0084,-0.187424 0.07918,-0.464252 0.157223,-0.615174 0.202598,-0.391776 0.835011,-1.044214 1.303696,-1.344966 0.340541,-0.218525 0.483389,-0.257431 0.94417,-0.257162 0.973274,6.4e-4 1.295965,0.365555 1.10943,1.254864 -0.183683,0.875709 -0.708572,1.506899 -1.413177,1.699363 -0.384867,0.10513 -0.571005,0.104791 -1.227668,-0.0022 z"
       id="dot" />
  </g>
</svg>
